Coordinates
version=1
nRows=40
nColumns=30
inDegrees=yes

Units are S.I. units (second, meters, Newtons, ...)
Angles are in degrees.

endheader
time	floatyaw	floatroll	floatpitch	floatx	floaty	floatz	pro_sup_l	deviation_l	flexion_l	cmc_flexion_l	cmc_abduction_l	mp_flexion_l	ip_flexion_l	2mcp_flexion_l	2mcp_abduction_l	2pm_flexion_l	2md_flexion_l	3mcp_flexion_l	3mcp_abduction_l	3pm_flexion_l	3md_flexion_l	4mcp_flexion_l	4mcp_abduction_l	4pm_flexion_l	4md_flexion_l	5mcp_flexion_l	5mcp_abduction_l	5pm_flexion_l	5md_flexion_l
0.005000	-2.462414	-4.584149	94.174208	0.154763	-0.262913	0.143946	96.045476	17.799106	20.387466	-8.285069	31.130274	-21.218874	-17.501504	56.382764	11.468097	28.686311	24.500747	53.939445	7.503097	36.013494	58.546291	41.134336	-6.120404	52.046028	48.945026	19.696354	-10.191410	46.540527	45.312114
0.015000	-2.462414	-4.584149	94.174208	0.154122	-0.262440	0.142674	95.189065	17.546266	19.519348	-7.510281	30.635506	-21.735454	-19.371710	57.280550	11.382136	28.476438	24.702122	53.788708	7.421800	36.845073	60.062015	40.927238	-6.275190	52.762575	50.476927	19.896345	-9.871924	46.383303	45.132140
0.025000	-2.462414	-4.584149	94.174208	0.153356	-0.261915	0.141379	94.344723	17.315185	18.612237	-6.624732	30.328986	-22.199950	-21.640475	58.125148	11.276796	28.326861	24.969894	53.623002	7.343593	37.707257	61.652129	40.722665	-6.412343	53.429272	52.149145	20.064183	-9.580891	46.251757	44.954135
0.035000	-2.462414	-4.584149	94.174208	0.152512	-0.261418	0.140104	93.557940	17.118683	17.722406	-5.721035	30.222450	-22.567676	-24.141521	58.877142	11.172498	28.236984	25.273889	53.454705	7.274198	38.549282	63.182019	40.545012	-6.522960	53.976880	53.874874	20.223340	-9.343782	46.145454	44.775574
0.045000	-2.462414	-4.584149	94.174208	0.151634	-0.261030	0.138897	92.876116	16.968913	16.910633	-4.900890	30.301996	-22.798874	-26.634825	59.476677	11.091559	28.202169	25.568769	53.289254	7.215980	39.313698	64.488202	40.404927	-6.602089	54.351156	55.522987	20.378515	-9.175372	46.059450	44.595177
0.055000	-2.462414	-4.584149	94.174208	0.150763	-0.260805	0.137816	92.340007	16.878042	16.221653	-4.247773	30.530974	-22.877029	-28.869930	59.876026	11.049478	28.213241	25.806009	53.134696	7.168799	39.943965	65.442814	40.306687	-6.650364	54.529957	56.953654	20.520863	-9.074036	45.990343	44.417875
0.065000	-2.462414	-4.584149	94.174208	0.149930	-0.260756	0.136923	91.974985	16.855726	15.669051	-3.803403	30.856637	-22.818497	-30.656871	60.068871	11.048074	28.255962	25.948438	53.006571	7.131270	40.396659	66.000135	40.253972	-6.673300	54.530743	58.059471	20.641087	-9.023756	45.938446	44.253721
0.075000	-2.462414	-4.584149	94.174208	0.149160	-0.260851	0.136267	91.784905	16.904416	15.233942	-3.559212	31.220777	-22.667645	-31.914772	60.099775	11.075054	28.311902	25.981181	52.927105	7.101721	40.651474	66.206410	40.252368	-6.678842	54.403586	58.795061	20.741558	-9.002034	45.905575	44.112828
0.085000	-2.462414	-4.584149	94.174208	0.148475	-0.261030	0.135868	91.750287	17.015537	14.878196	-3.466662	31.572302	-22.479647	-32.679295	60.048559	11.110619	28.361144	25.913784	52.919391	7.078605	40.713679	66.173290	40.308188	-6.674562	54.211653	59.184552	20.838975	-8.988673	45.891248	44.000079
0.095000	-2.462414	-4.584149	94.174208	0.147900	-0.261223	0.135704	91.831344	17.169253	14.564489	-3.460540	31.876802	-22.300303	-33.069676	59.999158	11.136875	28.385848	25.772807	52.998940	7.060667	40.608610	66.033057	40.424593	-6.665716	54.008260	59.307328	20.955806	-8.970977	45.890912	43.912551
0.105000	-2.462414	-4.584149	94.174208	0.147456	-0.261378	0.135714	91.975771	17.338411	14.272103	-3.483716	32.118464	-22.153558	-33.233169	60.010040	11.144448	28.373323	25.589423	53.165944	7.047076	40.372282	65.898070	40.596889	-6.654676	53.821355	59.270759	21.106665	-8.944200	45.897227	43.839892
0.115000	-2.462414	-4.584149	94.174208	0.147152	-0.261473	0.135813	92.130323	17.495049	14.001111	-3.502807	32.294302	-22.041816	-33.292238	60.099046	11.133625	28.318334	25.388921	53.401119	7.037372	40.044333	65.837283	40.809181	-6.641610	53.651773	59.180674	21.288473	-8.908949	45.902578	43.766312
0.125000	-2.462414	-4.584149	94.174208	0.146978	-0.261512	0.135922	92.253414	17.616949	13.765111	-3.510131	32.405990	-21.956163	-33.315868	60.245592	11.111317	28.225241	25.187326	53.666813	7.031062	39.667581	65.870492	41.034342	-6.625947	53.484662	59.117732	21.479515	-8.867923	45.901045	43.674322
0.135000	-2.462414	-4.584149	94.174208	0.146901	-0.261519	0.135991	92.324264	17.692012	13.578732	-3.514257	32.455702	-21.888655	-33.322791	60.405410	11.086727	28.109617	24.995534	53.914088	7.027066	39.292141	65.975608	41.238312	-6.607927	53.307694	59.124203	21.646959	-8.823728	45.889747	43.551605
0.145000	-2.462414	-4.584149	94.174208	0.146877	-0.261521	0.136011	92.344665	17.719290	13.447660	-3.526141	32.448208	-21.839414	-33.307514	60.530333	11.067814	27.997212	24.826308	54.094970	7.023541	38.976429	66.104545	41.387977	-6.589511	53.126660	59.202492	21.759037	-8.778482	45.869738	43.399714
0.155000	-2.462414	-4.584149	94.174208	0.146862	-0.261542	0.136005	92.332731	17.706754	13.365712	-3.548760	32.395798	-21.815659	-33.269140	60.586058	11.059225	27.918111	24.697514	54.176570	7.018351	38.778222	66.203653	41.460124	-6.574101	52.969924	59.324062	21.797170	-8.734749	45.845650	43.238689
0.165000	-2.462414	-4.584149	94.174208	0.146832	-0.261591	0.136013	92.311989	17.667124	13.318591	-3.575020	32.320184	-21.824864	-33.224870	60.562704	11.061657	27.896518	24.627823	54.151743	7.009955	38.736453	66.233307	41.448257	-6.565184	52.878185	59.445218	21.763502	-8.696371	45.823278	43.101606
0.175000	-2.462414	-4.584149	94.174208	0.146780	-0.261664	0.136065	92.301006	17.613614	13.290519	-3.593293	32.248357	-21.867171	-33.203160	60.475761	11.072385	27.940252	24.626753	54.041596	6.998131	38.852772	66.180460	41.364987	-6.564613	52.883796	59.524831	21.680710	-8.667787	45.806083	43.019458
0.185000	-2.462414	-4.584149	94.174208	0.146718	-0.261747	0.136169	92.307571	17.556969	13.269605	-3.595437	32.204364	-21.932010	-33.225858	60.358348	11.086705	28.035835	24.685408	53.888277	6.984063	39.085089	66.059618	41.239105	-6.571572	52.990781	59.538628	21.583699	-8.651816	45.793174	43.004725
0.195000	-2.462414	-4.584149	94.174208	0.146661	-0.261821	0.136309	92.328582	17.504257	13.249757	-3.581544	32.201944	-22.001044	-33.294449	60.248352	11.099798	28.152937	24.774893	53.740495	6.969730	39.360068	65.902629	41.107709	-6.582892	53.167884	59.485658	21.506322	-8.647451	45.780715	43.044311
0.205000	-2.462414	-4.584149	94.174208	0.146621	-0.261870	0.136453	92.354220	17.459046	13.229438	-3.558895	32.241808	-22.055585	-33.389894	60.175349	11.108365	28.256681	24.855320	53.637534	6.957007	39.600122	65.743535	41.005265	-6.594551	53.360034	59.385331	21.469023	-8.649568	45.765925	43.106715
0.215000	-2.462414	-4.584149	94.174208	0.146601	-0.261888	0.136571	92.373647	17.422353	13.209059	-3.537003	32.313901	-22.083988	-33.484391	60.152060	11.111389	28.321501	24.891580	53.598274	6.947034	39.751177	65.606784	40.953324	-6.603438	53.512123	59.267333	21.473313	-8.651130	45.750361	43.158785
0.225000	-2.462414	-4.584149	94.174208	0.146595	-0.261882	0.136643	92.379644	17.393810	13.188874	-3.522756	32.402211	-22.084917	-33.555544	60.173098	11.109765	28.339503	24.867180	53.619124	6.940129	39.797667	65.503067	40.955102	-6.608356	53.591592	59.159397	21.505333	-8.646625	45.739636	43.181318
0.235000	-2.462414	-4.584149	94.174208	0.146592	-0.261865	0.136664	92.370668	17.372657	13.168202	-3.518551	32.489569	-22.065380	-33.594015	60.220581	11.105202	28.319971	24.788505	53.680196	6.936081	39.759784	65.431412	40.997188	-6.609841	53.598178	59.078043	21.545464	-8.634571	45.739771	43.174606
0.245000	-2.462414	-4.584149	94.174208	0.146583	-0.261852	0.136643	92.350264	17.358282	13.145672	-3.523383	32.561450	-22.035681	-33.602435	60.273195	11.099200	28.281688	24.678357	53.755755	6.934424	39.677490	65.384028	41.057166	-6.609198	53.557853	59.025398	21.578018	-8.617721	45.753169	43.152737
0.255000	-2.462414	-4.584149	94.174208	0.146559	-0.261854	0.136598	92.324808	17.350251	13.119756	-3.534801	32.608984	-22.004736	-33.589668	60.314346	11.092685	28.243092	24.563932	53.824171	6.934517	39.590652	65.351544	41.113367	-6.607524	53.506541	58.992317	21.596382	-8.601160	45.777058	43.132515
0.265000	-2.462414	-4.584149	94.174208	0.146518	-0.261874	0.136544	92.300891	17.347999	13.089119	-3.549964	32.631084	-21.977937	-33.565710	60.336375	11.086208	28.215296	24.465986	53.873936	6.935535	39.524338	65.327097	41.152492	-6.605310	53.472973	58.965381	21.602689	-8.589606	45.804944	43.124473
0.275000	-2.462414	-4.584149	94.174208	0.146460	-0.261908	0.136495	92.283365	17.350539	13.052782	-3.565749	32.634525	-21.957502	-33.539358	60.340420	11.080208	28.200344	24.393349	53.904480	6.936573	39.484126	65.308006	41.172438	-6.602628	53.468447	58.934067	21.603940	-8.585255	45.829532	43.129917
0.285000	-2.462414	-4.584149	94.174208	0.146386	-0.261950	0.136458	92.274540	17.356487	13.010327	-3.578961	32.630890	-21.943735	-33.517489	60.333293	11.074919	28.193703	24.343537	53.922847	6.936884	39.460442	65.295106	41.180034	-6.599529	53.486361	58.895205	21.607417	-8.586962	45.845148	43.143398
0.295000	-2.462414	-4.584149	94.174208	0.146302	-0.261994	0.136433	92.274462	17.364466	12.962220	-3.587287	32.631095	-21.935833	-33.504197	60.323306	11.070085	28.188264	24.307691	53.938682	6.936132	39.437042	65.291230	41.185650	-6.596227	53.509241	58.853735	21.617492	-8.590923	45.848738	43.157506
0.305000	-2.462414	-4.584149	94.174208	0.146211	-0.262035	0.136420	92.281789	17.373582	12.910098	-3.590459	32.640263	-21.932046	-33.499551	60.316636	11.064931	28.177682	24.276474	53.959842	6.934470	39.398885	65.299777	41.197633	-6.593000	53.518298	58.820162	21.634715	-8.592479	45.839731	43.166813
0.315000	-2.462414	-4.584149	94.174208	0.146119	-0.262069	0.136416	92.294671	17.383606	12.856659	-3.590579	32.656062	-21.929898	-33.499179	60.315407	11.058670	28.158364	24.243576	53.989867	6.932364	39.337445	65.322767	41.219087	-6.589996	53.501093	58.805704	21.656853	-8.588251	45.819654	43.169122
0.325000	-2.462414	-4.584149	94.174208	0.146027	-0.262097	0.136416	92.311292	17.394664	12.805031	-3.591078	32.671390	-21.926947	-33.495839	60.317938	11.051220	28.130423	24.205670	54.027460	6.930249	39.253394	65.358104	41.247877	-6.587166	53.455089	58.816813	21.680935	-8.577612	45.791880	43.164101
0.335000	-2.462414	-4.584149	94.174208	0.145941	-0.262118	0.136419	92.330085	17.406735	12.757837	-3.594944	32.679370	-21.921770	-33.482688	60.320641	11.043512	28.097692	24.160484	54.067659	6.928272	39.156461	65.397751	41.279099	-6.584355	53.386919	58.851377	21.705196	-8.562777	45.761142	43.151016
0.345000	-2.462414	-4.584149	94.174208	0.145862	-0.262133	0.136422	92.349815	17.419422	12.716466	-3.603344	32.677339	-21.914387	-33.456550	60.320333	11.037037	28.066504	24.105549	54.104104	6.926279	39.062181	65.429045	41.308280	-6.581454	53.308535	58.898521	21.729978	-8.547497	45.732413	43.127698
0.355000	-2.462414	-4.584149	94.174208	0.145792	-0.262145	0.136427	92.369567	17.432147	12.680931	-3.615432	32.667770	-21.905833	-33.419389	60.315778	11.032931	28.043130	24.038792	54.131541	6.924041	38.986285	65.439321	41.333544	-6.578562	53.232261	58.942389	21.757122	-8.535073	45.709539	43.091897
0.365000	-2.462414	-4.584149	94.174208	0.145732	-0.262153	0.136433	92.388580	17.444443	12.650384	-3.629138	32.656345	-21.897379	-33.377242	60.308016	11.031225	28.030731	23.960143	54.147700	6.921489	38.938874	65.421472	41.355835	-6.576050	53.166838	58.968371	21.788300	-8.526839	45.694408	43.044165
0.375000	-2.462414	-4.584149	94.174208	0.145682	-0.262159	0.136441	92.405958	17.455941	12.623928	-3.642279	32.648853	-21.890033	-33.337264	60.299914	11.030686	28.027305	23.872450	54.153982	6.918766	38.920681	65.377539	41.377574	-6.574462	53.115682	58.969068	21.823623	-8.521927	45.686921	42.989922
0.385000	-2.462414	-4.584149	94.174208	0.145642	-0.262165	0.136451	92.420511	17.466132	12.601228	-3.653418	32.648662	-21.884455	-33.304457	60.295494	11.029246	28.025881	23.780908	54.154842	6.916094	38.922837	65.318801	41.400895	-6.574193	53.077409	58.947288	21.861645	-8.518306	45.685378	42.938593
0.395000	-2.462414	-4.584149	94.174208	0.145612	-0.262171	0.136461	92.431014	17.474304	12.582600	-3.662261	32.655527	-21.880915	-33.279764	60.299058	11.024720	28.017106	23.691561	54.156032	6.913630	38.930372	65.262310	41.426480	-6.575100	53.047913	58.914493	21.900562	-8.514170	45.686989	42.899776
